<svg width="60" height="40" viewBox="0 0 60 40" xmlns="http://www.w3.org/2000/svg" role="img" aria-label="Flag of the United States">
  <rect width="60" height="40" fill="#FFFFFF"/>
  <g fill="#B22234">
    <rect width="60" y="0" height="3.08"/>
    <rect width="60" y="6.15" height="3.08"/>
    <rect width="60" y="12.31" height="3.08"/>
    <rect width="60" y="18.46" height="3.08"/>
    <rect width="60" y="24.62" height="3.08"/>
    <rect width="60" y="30.77" height="3.08"/>
    <rect width="60" y="36.92" height="3.08"/>
  </g>
  <rect width="24" height="21.54" fill="#3C3B6E"/>
  <g fill="#FFFFFF">
    <circle cx="4" cy="4" r="0.8"/>
    <circle cx="10" cy="4" r="0.8"/>
    <circle cx="16" cy="4" r="0.8"/>
    <circle cx="22" cy="4" r="0.8"/>
    <circle cx="7" cy="8" r="0.8"/>
    <circle cx="13" cy="8" r="0.8"/>
    <circle cx="19" cy="8" r="0.8"/>
    <circle cx="4" cy="12" r="0.8"/>
    <circle cx="10" cy="12" r="0.8"/>
    <circle cx="16" cy="12" r="0.8"/>
    <circle cx="22" cy="12" r="0.8"/>
    <circle cx="7" cy="16" r="0.8"/>
    <circle cx="13" cy="16" r="0.8"/>
    <circle cx="19" cy="16" r="0.8"/>
  </g>
</svg>
